<svg width="47" height="47" viewBox="0 0 47 47" version="1.1" xmlns="http://www.w3.org/2000/svg" xmlns:xlink="http://www.w3.org/1999/xlink">
<g id="Canvas" fill="none">
<g id="arrow-right" clip-path="url(#clip0)">
<g id="Arrow">
<path d="M 0 -2C -1.10457 -2 -2 -1.10457 -2 0C -2 1.10457 -1.10457 2 0 2L 0 -2ZM 28.426 1.41421C 29.207 0.633165 29.207 -0.633165 28.426 -1.41421L 15.698 -14.1421C 14.917 -14.9232 13.6507 -14.9232 12.8696 -14.1421C 12.0886 -13.3611 12.0886 -12.0948 12.8696 -11.3137L 24.1833 0L 12.8696 11.3137C 12.0886 12.0948 12.0886 13.3611 12.8696 14.1421C 13.6507 14.9232 14.917 14.9232 15.698 14.1421L 28.426 1.41421ZM 0 2L 27.0117 2L 27.0117 -2L 0 -2L 0 2Z" transform="matrix(0.999565 0.0294912 0.0294912 -0.999565 10 23)" fill="black"/>
</g>
</g>
</g>
<defs>

<clipPath id="clip0">
<rect width="47" height="47" fill="white" transform="translate(47 0) scale(-1 1)"/>
</clipPath>

</defs>
</svg>

