<svg width="47" height="47" viewBox="0 0 47 47" version="1.1" xmlns="http://www.w3.org/2000/svg" xmlns:xlink="http://www.w3.org/1999/xlink">
<g id="Canvas" fill="none">
<g id="number2" clip-path="url(#clip0)">
<g id="2">
<path d="M 32.2891 36L 15.5195 36L 15.5195 33.6621L 24.3789 23.8184C 25.6914 22.3301 26.5938 21.123 27.0859 20.1973C 27.5898 19.2598 27.8418 18.293 27.8418 17.2969C 27.8418 15.9609 27.4375 14.8652 26.6289 14.0098C 25.8203 13.1543 24.7422 12.7266 23.3945 12.7266C 21.7773 12.7266 20.5176 13.1895 19.6152 14.1152C 18.7246 15.0293 18.2793 16.3066 18.2793 17.9473L 15.0273 17.9473C 15.0273 15.5918 15.7832 13.6875 17.2949 12.2344C 18.8184 10.7812 20.8516 10.0547 23.3945 10.0547C 25.7734 10.0547 27.6543 10.6816 29.0371 11.9355C 30.4199 13.1777 31.1113 14.8359 31.1113 16.9102C 31.1113 19.4297 29.5059 22.4297 26.2949 25.9102L 19.4395 33.3457L 32.2891 33.3457L 32.2891 36Z" fill="black"/>
</g>
</g>
</g>
<defs>

<clipPath id="clip0">
<rect width="47" height="47" fill="white"/>
</clipPath>

</defs>
</svg>

