<svg width="47" height="47" viewBox="0 0 47 47" version="1.1" xmlns="http://www.w3.org/2000/svg" xmlns:xlink="http://www.w3.org/1999/xlink">
<g id="Canvas" fill="none">
<g id="number3" clip-path="url(#clip0)">
<g id="3">
<path d="M 20.248 21.6211L 22.6914 21.6211C 24.2266 21.5977 25.4336 21.1934 26.3125 20.4082C 27.1914 19.623 27.6309 18.5625 27.6309 17.2266C 27.6309 14.2266 26.1367 12.7266 23.1484 12.7266C 21.7422 12.7266 20.6172 13.1309 19.7734 13.9395C 18.9414 14.7363 18.5254 15.7969 18.5254 17.1211L 15.2734 17.1211C 15.2734 15.0938 16.0117 13.4121 17.4883 12.0762C 18.9766 10.7285 20.8633 10.0547 23.1484 10.0547C 25.5625 10.0547 27.4551 10.6934 28.8262 11.9707C 30.1973 13.248 30.8828 15.0234 30.8828 17.2969C 30.8828 18.4102 30.5195 19.4883 29.793 20.5312C 29.0781 21.5742 28.0996 22.3535 26.8574 22.8691C 28.2637 23.3145 29.3477 24.0527 30.1094 25.084C 30.8828 26.1152 31.2695 27.375 31.2695 28.8633C 31.2695 31.1602 30.5195 32.9824 29.0195 34.3301C 27.5195 35.6777 25.5684 36.3516 23.166 36.3516C 20.7637 36.3516 18.8066 35.7012 17.2949 34.4004C 15.7949 33.0996 15.0449 31.3828 15.0449 29.25L 18.3145 29.25C 18.3145 30.5977 18.7539 31.6758 19.6328 32.4844C 20.5117 33.293 21.6895 33.6973 23.166 33.6973C 24.7363 33.6973 25.9375 33.2871 26.7695 32.4668C 27.6016 31.6465 28.0176 30.4688 28.0176 28.9336C 28.0176 27.4453 27.5605 26.3027 26.6465 25.5059C 25.7324 24.709 24.4141 24.2988 22.6914 24.2754L 20.248 24.2754L 20.248 21.6211Z" fill="black"/>
</g>
</g>
</g>
<defs>

<clipPath id="clip0">
<rect width="47" height="47" fill="white"/>
</clipPath>

</defs>
</svg>

