<svg width="47" height="47" viewBox="0 0 47 47" version="1.1" xmlns="http://www.w3.org/2000/svg" xmlns:xlink="http://www.w3.org/1999/xlink">
<g id="Canvas" fill="none">
<g id="number6" clip-path="url(#clip0)">
<g id="6">
<path d="M 28.2812 10.3887L 28.2812 13.1484L 27.6836 13.1484C 25.1523 13.1953 23.1367 13.9453 21.6367 15.3984C 20.1367 16.8516 19.2695 18.8965 19.0352 21.5332C 20.3828 19.9863 22.2227 19.2129 24.5547 19.2129C 26.7812 19.2129 28.5566 19.998 29.8809 21.5684C 31.2168 23.1387 31.8848 25.166 31.8848 27.6504C 31.8848 30.2871 31.1641 32.3965 29.7227 33.9785C 28.293 35.5605 26.3711 36.3516 23.957 36.3516C 21.5078 36.3516 19.5215 35.4141 17.998 33.5391C 16.4746 31.6523 15.7129 29.2266 15.7129 26.2617L 15.7129 25.0137C 15.7129 20.3027 16.7148 16.7051 18.7188 14.2207C 20.7344 11.7246 23.7285 10.4473 27.7012 10.3887L 28.2812 10.3887ZM 24.0098 21.9199C 22.8965 21.9199 21.8711 22.2539 20.9336 22.9219C 19.9961 23.5898 19.3457 24.4277 18.9824 25.4355L 18.9824 26.6309C 18.9824 28.7402 19.457 30.4395 20.4062 31.7285C 21.3555 33.0176 22.5391 33.6621 23.957 33.6621C 25.4219 33.6621 26.5703 33.123 27.4023 32.0449C 28.2461 30.9668 28.668 29.5547 28.668 27.8086C 28.668 26.0508 28.2402 24.6328 27.3848 23.5547C 26.541 22.4648 25.416 21.9199 24.0098 21.9199Z" fill="black"/>
</g>
</g>
</g>
<defs>

<clipPath id="clip0">
<rect width="47" height="47" fill="white"/>
</clipPath>

</defs>
</svg>

