<svg width="47" height="47" viewBox="0 0 47 47" version="1.1" xmlns="http://www.w3.org/2000/svg" xmlns:xlink="http://www.w3.org/1999/xlink">
<g id="Canvas" fill="none">
<g id="number5" clip-path="url(#clip0)">
<g id="5">
<path d="M 17.0137 23.168L 18.3145 10.4062L 31.4277 10.4062L 31.4277 13.4121L 21.0742 13.4121L 20.3008 20.3906C 21.5547 19.6523 22.9785 19.2832 24.5723 19.2832C 26.9043 19.2832 28.7559 20.0566 30.127 21.6035C 31.498 23.1387 32.1836 25.2188 32.1836 27.8438C 32.1836 30.4805 31.4688 32.5605 30.0391 34.084C 28.6211 35.5957 26.6348 36.3516 24.0801 36.3516C 21.8184 36.3516 19.9727 35.7246 18.543 34.4707C 17.1133 33.2168 16.2988 31.4824 16.0996 29.2676L 19.1758 29.2676C 19.375 30.7324 19.8965 31.8398 20.7402 32.5898C 21.584 33.3281 22.6973 33.6973 24.0801 33.6973C 25.5918 33.6973 26.7754 33.1816 27.6309 32.1504C 28.498 31.1191 28.9316 29.6953 28.9316 27.8789C 28.9316 26.168 28.4629 24.7969 27.5254 23.7656C 26.5996 22.7227 25.3633 22.2012 23.8164 22.2012C 22.3984 22.2012 21.2852 22.5117 20.4766 23.1328L 19.6152 23.8359L 17.0137 23.168Z" fill="black"/>
</g>
</g>
</g>
<defs>

<clipPath id="clip0">
<rect width="47" height="47" fill="white"/>
</clipPath>

</defs>
</svg>

